<?xml version="1.0" encoding="UTF-8"?>
<svg id="Layer_2" data-name="Layer 2" xmlns="http://www.w3.org/2000/svg" viewBox="0 0 1381.8 260.87">
  <g id="Layer_1-2" data-name="Layer 1">
    <g>
      <g>
        <path d="M1381.8,69.06v98.55h-119.27c-11.84,0-21.28-3.09-28.9-9.38-8.75-7.05-12.97-16.94-12.97-30.23V35.06c0-10.58,2.02-18.51,5.98-23.43,6.23-7.62,18.26-11.46,35.89-11.46h119.27v28.59h-106.49c-5.6,0-10.39,2.02-13.92,5.73-3.46,3.65-5.16,8.31-5.16,13.85v68.89c0,21.1,14.11,23.36,20.21,23.36h69.52v-40.74h-58.44v-12.97c0-9.82,8-17.82,17.82-17.82h76.45Z"/>
        <path d="M521.36,139.14v10.79c0,9.84-8.01,17.85-17.85,17.85h-130.57V0h148.43v10.79c0,9.84-8.01,17.85-17.85,17.85h-94.73v40.39h81.03v12.3c0,9.9-8.01,17.93-17.85,17.93h-63.18v39.88h112.59Z"/>
        <path d="M0,167.78L70.66,0h40.07l71.11,167.78h-29.78c-7.32,0-13.89-4.48-16.6-11.3l-44.93-113.07-44.04,112.96c-2.65,6.87-9.28,11.42-16.66,11.42H0Z"/>
        <path d="M1209.71,39.79v127.83h-35.77V52.38c0-8.68-2.58-14.91-7.68-18.63-4.48-3.33-10.96-4.98-19.78-4.98h-61.01v138.85h-35.77V.19h117.94c11.21,0,20.53,2.51,27.71,7.5,9.63,6.6,14.35,17.12,14.35,32.1"/>
        <path d="M568.95,139.09V17.83C568.95,7.98,560.96,0,551.12,0h-18.22v167.69h125c9.42-.47,16.94-8.28,16.94-17.82v-10.78h-105.89Z"/>
        <path d="M905.78.17h98.38c9.61,0,17.79,3.37,24.53,10.12,6.74,6.74,10.12,14.85,10.12,24.3v133.03h-36.51v-39.53c0-7.97-6.46-14.43-14.43-14.43h-66.03c-7.97,0-14.43,6.46-14.43,14.43v39.53h-36.05V34.59c0-9.61,3.33-17.75,10-24.42,6.67-6.66,14.81-10,24.42-10ZM907.41,69.71h94.88v-26.5c0-7.97-6.46-14.43-14.43-14.43h-66.03c-7.97,0-14.43,6.46-14.43,14.43v26.5Z"/>
        <path d="M352.69,76.68c1.08-2.79,1.63-6.36,1.63-10.7v-31.4c0-9.45-3.37-17.56-10.12-24.3-6.74-6.75-14.85-10.12-24.3-10.12h-126.51v28.43h116.51c7.97,0,14.43,6.46,14.43,14.43v26.01h-130.93v98.58h132.79c9.61,0,17.79-3.37,24.53-10.12,6.75-6.75,10.12-14.84,10.12-24.3v-34.65c0-7.75-2.71-15.03-8.14-21.86ZM324.32,108.49v16.82c0,7.97-6.46,14.43-14.43,14.43h-80.46v-40.44h94.89v9.18Z"/>
        <path d="M848.43,10.24c-6.45-6.75-14.28-10.12-23.47-10.12h-127.05v167.44h127.05c9.2,0,17.02-3.37,23.47-10.12,6.45-6.75,9.68-14.84,9.68-24.3V34.54c0-9.45-3.23-17.56-9.68-24.3ZM821.6,53.79v63.01c0,7.11-3.45,13.4-8.74,17.35-3.18,2.71-7.01,4.29-11.14,4.29h-67.29V28.78h67.29c4.13,0,7.96,1.58,11.14,4.29,5.3,3.94,8.74,10.24,8.74,17.35v3.37Z"/>
      </g>
      <g>
        <path d="M705.45,240.22v19.94h-7.54v-49.72h21.31c5.94,0,10.57,1.37,13.87,4.1,3.3,2.73,4.96,6.33,4.96,10.79s-1.65,8.12-4.96,10.82c-3.3,2.71-7.93,4.06-13.87,4.06h-13.78ZM705.45,234.96h13.78c3.77,0,6.59-.9,8.46-2.71,1.86-1.81,2.79-4.09,2.79-6.85s-.94-5.05-2.81-6.9c-1.88-1.84-4.69-2.77-8.44-2.77h-13.78v19.22Z"/>
        <path d="M778.78,238.61v21.55h-7.54v-49.68h19.06c6.1,0,10.75,1.21,13.97,3.62,3.21,2.41,4.82,5.92,4.82,10.52,0,2.55-.75,4.77-2.24,6.66-1.49,1.89-3.67,3.39-6.52,4.51,3.06.89,5.26,2.33,6.6,4.32,1.34,1.99,2.01,4.46,2.01,7.39v4.68c0,1.55.19,2.94.57,4.17s1.05,2.23,1.99,3v.82h-7.77c-1-.77-1.63-1.91-1.91-3.41-.28-1.5-.42-3.05-.42-4.64v-4.54c0-2.69-.88-4.85-2.64-6.49-1.76-1.64-4.12-2.46-7.08-2.46h-12.89ZM778.78,233.32h10.75c4.26,0,7.33-.72,9.2-2.17,1.88-1.44,2.81-3.65,2.81-6.61,0-2.8-.91-4.97-2.74-6.5-1.82-1.54-4.66-2.3-8.51-2.3h-11.52v17.58Z"/>
        <path d="M887.16,239.74c0,6.08-2.11,11.12-6.33,15.13-4.22,4.01-9.7,6.01-16.43,6.01s-11.79-2-15.86-6.01c-4.07-4.01-6.1-9.05-6.1-15.13v-8.84c0-6.06,2.03-11.1,6.1-15.13,4.07-4.03,9.36-6.04,15.86-6.04s12.21,2.01,16.43,6.03c4.22,4.02,6.33,9.06,6.33,15.14v8.84ZM879.62,230.83c0-4.55-1.38-8.29-4.13-11.2-2.76-2.91-6.45-4.37-11.1-4.37-4.39,0-7.89,1.46-10.5,4.37-2.61,2.91-3.92,6.65-3.92,11.2v8.91c0,4.6,1.31,8.35,3.92,11.27,2.61,2.91,6.12,4.37,10.5,4.37,4.67,0,8.37-1.45,11.12-4.35,2.74-2.9,4.11-6.66,4.11-11.28v-8.91Z"/>
        <path d="M921.53,260.16v-49.72h17.53c7.27,0,13.12,2,17.54,5.99,4.43,3.99,6.64,9.16,6.64,15.48v6.8c0,6.35-2.21,11.51-6.64,15.49-4.43,3.97-10.27,5.96-17.54,5.96h-17.53ZM929.07,215.74v39.16h9.99c5.15,0,9.22-1.51,12.19-4.54,2.97-3.03,4.46-6.91,4.46-11.64v-6.86c0-4.69-1.49-8.55-4.46-11.58-2.97-3.03-7.03-4.54-12.19-4.54h-9.99Z"/>
        <path d="M1039.21,210.44v33.02c0,5.46-1.99,9.73-5.97,12.8-3.98,3.07-9.11,4.61-15.38,4.61s-11-1.54-14.85-4.63c-3.85-3.08-5.78-7.35-5.78-12.79v-33.02h7.54v33.02c0,3.8,1.22,6.78,3.65,8.93,2.44,2.15,5.58,3.23,9.43,3.23,4.08,0,7.4-1.08,9.97-3.23,2.56-2.15,3.85-5.13,3.85-8.93v-33.02h7.54Z"/>
        <path d="M1114.42,244.25l.08.2c.1,4.67-1.74,8.57-5.51,11.71-3.78,3.14-8.76,4.71-14.96,4.71s-11.43-1.99-15.4-5.97c-3.97-3.98-5.95-9.04-5.95-15.16v-8.84c0-6.12,1.98-11.18,5.95-15.18,3.97-3.99,9.1-5.99,15.4-5.99s11.31,1.5,15.04,4.49c3.73,2.99,5.54,6.96,5.43,11.9l-.08.2h-7.23c0-3.48-1.15-6.24-3.44-8.26-2.3-2.03-5.54-3.04-9.72-3.04s-7.56,1.51-10.06,4.54c-2.5,3.03-3.75,6.78-3.75,11.27v8.91c0,4.53,1.25,8.31,3.75,11.34,2.5,3.03,5.86,4.54,10.06,4.54s7.42-1.01,9.72-3.02c2.3-2.01,3.44-4.8,3.44-8.35h7.23Z"/>
        <path d="M1185.65,215.74h-18.37v44.42h-7.54v-44.42h-18.14v-5.29h44.04v5.29Z"/>
        <path d="M1225.42,260.16h-7.58v-49.72h7.58v49.72Z"/>
        <path d="M1305.29,239.74c0,6.08-2.11,11.12-6.33,15.13-4.22,4.01-9.7,6.01-16.43,6.01s-11.79-2-15.86-6.01c-4.07-4.01-6.1-9.05-6.1-15.13v-8.84c0-6.06,2.03-11.1,6.1-15.13,4.07-4.03,9.36-6.04,15.86-6.04s12.21,2.01,16.43,6.03c4.22,4.02,6.33,9.06,6.33,15.14v8.84ZM1297.75,230.83c0-4.55-1.38-8.29-4.13-11.2-2.76-2.91-6.45-4.37-11.1-4.37-4.39,0-7.89,1.46-10.5,4.37-2.61,2.91-3.92,6.65-3.92,11.2v8.91c0,4.6,1.31,8.35,3.92,11.27,2.61,2.91,6.12,4.37,10.5,4.37,4.67,0,8.37-1.45,11.12-4.35,2.74-2.9,4.11-6.66,4.11-11.28v-8.91Z"/>
        <path d="M1381.8,260.16h-7.54l-26.82-37.97-.23.07v37.9h-7.54v-49.72h7.54l26.82,37.94.23-.07v-37.87h7.54v49.72Z"/>
      </g>
    </g>
  </g>
</svg>